<?xml version="1.0" encoding="iso-8859-1"?>
<!-- Generator: Adobe Illustrator 19.0.1, SVG Export Plug-In . SVG Version: 6.00 Build 0)  -->
<svg version="1.1" xmlns="http://www.w3.org/2000/svg" xmlns:xlink="http://www.w3.org/1999/xlink" x="0px" y="0px"
	 viewBox="0 0 50 50" style="enable-background:new 0 0 50 50;" xml:space="preserve">
<g id="Layer_10">
</g>
<g id="Layer_4">
	<path fill="#fffff5" id="XMLID_2_" d="M24.905,49.368c-13.546,0-24.566-11.02-24.566-24.566S11.359,0.235,24.905,0.235s24.566,11.02,24.566,24.566
		S38.451,49.368,24.905,49.368z M24.905,1.563c-12.814,0-23.239,10.425-23.239,23.239S12.091,48.04,24.905,48.04
		s23.239-10.425,23.239-23.239S37.719,1.563,24.905,1.563z"/>
	<path fill="#fffff5" id="XMLID_1_" d="M39.892,25.317c0.028-0.042,0.047-0.087,0.071-0.131c0.034-0.061,0.07-0.12,0.097-0.185
		c0.024-0.058,0.038-0.119,0.056-0.18c0.016-0.054,0.037-0.106,0.048-0.162c0.047-0.237,0.047-0.481,0-0.718
		c-0.011-0.056-0.032-0.109-0.048-0.163c-0.018-0.06-0.031-0.121-0.056-0.179c-0.027-0.065-0.064-0.124-0.098-0.186
		c-0.024-0.043-0.043-0.088-0.071-0.13c-0.068-0.102-0.145-0.196-0.231-0.282L26.825,10.166c-0.716-0.716-1.877-0.716-2.593,0
		s-0.716,1.877,0,2.593l9.707,9.707H10.661c-1.013,0-1.834,0.821-1.834,1.834s0.821,1.834,1.834,1.834h23.277l-9.707,9.707
		c-0.716,0.716-0.716,1.877,0,2.593c0.358,0.358,0.827,0.537,1.297,0.537c0.469,0,0.938-0.179,1.297-0.537l12.836-12.836
		C39.747,25.513,39.824,25.418,39.892,25.317z"/>
</g>
<g id="Layer_3">
</g>
<g id="nyt_x5F_exporter_x5F_info" style="display:none;">
</g>
</svg>
