<?xml version="1.0" encoding="UTF-8" standalone="no"?>
<!-- Generator: Adobe Illustrator 19.0.1, SVG Export Plug-In . SVG Version: 6.00 Build 0)  -->

<svg
   xmlns:dc="http://purl.org/dc/elements/1.1/"
   xmlns:cc="http://creativecommons.org/ns#"
   xmlns:rdf="http://www.w3.org/1999/02/22-rdf-syntax-ns#"
   xmlns:svg="http://www.w3.org/2000/svg"
   xmlns="http://www.w3.org/2000/svg"
   xmlns:sodipodi="http://sodipodi.sourceforge.net/DTD/sodipodi-0.dtd"
   xmlns:inkscape="http://www.inkscape.org/namespaces/inkscape"
   version="1.1"
   x="0px"
   y="0px"
   viewBox="0 0 50 50"
   style="enable-background:new 0 0 50 50;"
   xml:space="preserve"
   id="svg2"
   inkscape:version="0.48.4 r9939"
   width="100%"
   height="100%"
   sodipodi:docname="delete.svg"><metadata
     id="metadata49"><rdf:RDF><cc:Work
         rdf:about=""><dc:format>image/svg+xml</dc:format><dc:type
           rdf:resource="http://purl.org/dc/dcmitype/StillImage" /></cc:Work></rdf:RDF></metadata><defs
     id="defs47" /><sodipodi:namedview
     pagecolor="#ffffff"
     bordercolor="#666666"
     borderopacity="1"
     objecttolerance="10"
     gridtolerance="10"
     guidetolerance="10"
     inkscape:pageopacity="0"
     inkscape:pageshadow="2"
     inkscape:window-width="753"
     inkscape:window-height="480"
     id="namedview45"
     showgrid="false"
     inkscape:zoom="4.72"
     inkscape:cx="25"
     inkscape:cy="25"
     inkscape:window-x="604"
     inkscape:window-y="362"
     inkscape:window-maximized="0"
     inkscape:current-layer="Layer_4" /><style
     type="text/css"
     id="style4">
</style><g
     id="Layer_10" /><g
     id="Layer_4"><g
       id="XMLID_184_"
       style="fill:#5b515f;fill-opacity:0.94117647"><path
         id="XMLID_185_"
         d="M47.085,9.712v2.009c0,0.293-0.092,0.533-0.28,0.721c-0.188,0.19-0.431,0.284-0.722,0.284h-3.011v29.74    c0,1.736-0.494,3.236-1.474,4.502c-0.984,1.266-2.167,1.898-3.545,1.898H11.952c-1.382,0-2.565-0.612-3.545-1.835    c-0.984-1.224-1.474-2.703-1.474-4.439V12.725H3.917c-0.291,0-0.531-0.094-0.719-0.284c-0.188-0.188-0.284-0.428-0.284-0.721    V9.712c0-0.291,0.096-0.533,0.284-0.721C3.386,8.804,3.626,8.71,3.917,8.71h9.697l2.197-5.241    c0.313-0.772,0.877-1.432,1.692-1.975c0.818-0.544,1.644-0.816,2.48-0.816h10.039c0.837,0,1.662,0.273,2.477,0.816    s1.382,1.203,1.695,1.975L36.39,8.71h9.693c0.291,0,0.534,0.094,0.722,0.282C46.993,9.18,47.085,9.421,47.085,9.712z     M18.976,39.83V17.745c0-0.293-0.092-0.534-0.28-0.722s-0.431-0.282-0.722-0.282h-2.009c-0.291,0-0.534,0.094-0.722,0.282    s-0.28,0.429-0.28,0.722V39.83c0,0.293,0.092,0.533,0.28,0.722c0.188,0.188,0.431,0.282,0.722,0.282h2.009    c0.291,0,0.534-0.094,0.722-0.282C18.884,40.363,18.976,40.123,18.976,39.83z M17.974,8.71h14.053l-1.504-3.671    c-0.147-0.19-0.324-0.304-0.534-0.346h-9.943c-0.21,0.042-0.387,0.157-0.534,0.346L17.974,8.71z M27.007,39.83V17.745    c0-0.293-0.092-0.534-0.28-0.722s-0.428-0.282-0.722-0.282h-2.009c-0.291,0-0.531,0.094-0.719,0.282    c-0.192,0.188-0.284,0.429-0.284,0.722V39.83c0,0.293,0.092,0.533,0.284,0.722c0.188,0.188,0.428,0.282,0.719,0.282h2.009    c0.295,0,0.534-0.094,0.722-0.282C26.915,40.363,27.007,40.123,27.007,39.83z M35.041,39.83V17.745    c0-0.293-0.096-0.534-0.284-0.722c-0.188-0.188-0.428-0.282-0.722-0.282h-2.009c-0.291,0-0.531,0.094-0.719,0.282    s-0.284,0.429-0.284,0.722V39.83c0,0.293,0.096,0.533,0.284,0.722c0.188,0.188,0.428,0.282,0.719,0.282h2.009    c0.295,0,0.534-0.094,0.722-0.282C34.945,40.363,35.041,40.123,35.041,39.83z"
         style="fill:#5b515f;fill-opacity:0.94117647" /></g></g><g
     id="Layer_3" /><g
     id="nyt_x5F_exporter_x5F_info"
     style="display:none;"><text
       id="XMLID_123_"
       transform="matrix(1 0 0 1 -230.1628 -153.6667)"
       style="display:inline;"><tspan
         x="0"
         y="0"
         style="font-family:'MyriadPro-Regular'; font-size:12px;"
         id="tspan13">&lt;nyt_prefs&gt;</tspan><tspan
         x="0"
         y="14.4"
         style="font-family:'MyriadPro-Regular'; font-size:12px;"
         id="tspan15">  &lt;nyt_prefix&gt;&lt;/nyt_prefix&gt;</tspan><tspan
         x="0"
         y="28.8"
         style="font-family:'MyriadPro-Regular'; font-size:12px;"
         id="tspan17">  &lt;nyt_suffix&gt;arrow&lt;/nyt_suffix&gt;</tspan><tspan
         x="0"
         y="43.2"
         style="font-family:'MyriadPro-Regular'; font-size:12px;"
         id="tspan19">  &lt;nyt_base_path&gt;~/Documents/Qwizard/assets&lt;/nyt_base_path&gt;</tspan><tspan
         x="0"
         y="57.6"
         style="font-family:'MyriadPro-Regular'; font-size:12px;"
         id="tspan21">  &lt;nyt_scaling&gt;100&lt;/nyt_scaling&gt;</tspan><tspan
         x="0"
         y="72"
         style="font-family:'MyriadPro-Regular'; font-size:12px;"
         id="tspan23">  &lt;nyt_transparency&gt;true&lt;/nyt_transparency&gt;</tspan><tspan
         x="0"
         y="86.4"
         style="font-family:'MyriadPro-Regular'; font-size:12px;"
         id="tspan25">  &lt;nyt_embedImage&gt;true&lt;/nyt_embedImage&gt;</tspan><tspan
         x="0"
         y="100.8"
         style="font-family:'MyriadPro-Regular'; font-size:12px;"
         id="tspan27">  &lt;nyt_embedFont&gt;true&lt;/nyt_embedFont&gt;</tspan><tspan
         x="0"
         y="115.2"
         style="font-family:'MyriadPro-Regular'; font-size:12px;"
         id="tspan29">  &lt;nyt_trimEdges&gt;true&lt;/nyt_trimEdges&gt;</tspan><tspan
         x="0"
         y="129.6"
         style="font-family:'MyriadPro-Regular'; font-size:12px;"
         id="tspan31">  &lt;nyt_innerPadding&gt;false&lt;/nyt_innerPadding&gt;</tspan><tspan
         x="0"
         y="144"
         style="font-family:'MyriadPro-Regular'; font-size:12px;"
         id="tspan33">  &lt;nyt_format&gt;SVG&lt;/nyt_format&gt;</tspan><tspan
         x="0"
         y="158.4"
         style="font-family:'MyriadPro-Regular'; font-size:12px;"
         id="tspan35">  &lt;nyt_artboards&gt;current&lt;/nyt_artboards&gt;</tspan><tspan
         x="0"
         y="172.8"
         style="font-family:'MyriadPro-Regular'; font-size:12px;"
         id="tspan37">  &lt;nyt_layers&gt;selected&lt;/nyt_layers&gt;</tspan><tspan
         x="0"
         y="187.2"
         style="font-family:'MyriadPro-Regular'; font-size:12px;"
         id="tspan39">  &lt;nyt_exportArtboards&gt;false&lt;/nyt_exportArtboards&gt;</tspan><tspan
         x="0"
         y="201.6"
         style="font-family:'MyriadPro-Regular'; font-size:12px;"
         id="tspan41">  &lt;nyt_ignoreWarnings&gt;false&lt;/nyt_ignoreWarnings&gt;</tspan><tspan
         x="0"
         y="216"
         style="font-family:'MyriadPro-Regular'; font-size:12px;"
         id="tspan43">&lt;/nyt_prefs&gt;</tspan></text>
</g></svg>