<?xml version="1.0" encoding="iso-8859-1"?>
<!-- Generator: Adobe Illustrator 19.0.0, SVG Export Plug-In . SVG Version: 6.00 Build 0)  -->
<svg version="1.1" xmlns="http://www.w3.org/2000/svg" xmlns:xlink="http://www.w3.org/1999/xlink" x="0px" y="0px"
	 viewBox="0 0 50 38.322" style="enable-background:new 0 0 50 38.322;" xml:space="preserve">
<g id="Layer_5">
	<path id="XMLID_257_" d="M50,7.484c0,0.859-0.301,1.592-0.903,2.194L25.742,33.032l-4.388,4.388
		c-0.602,0.602-1.333,0.903-2.192,0.903c-0.861,0-1.592-0.301-2.194-0.903l-4.388-4.388L0.903,21.354
		C0.301,20.754,0,20.021,0,19.162c0-0.861,0.301-1.592,0.903-2.194l4.388-4.388c0.602-0.602,1.333-0.903,2.194-0.903
		c0.859,0,1.59,0.301,2.194,0.903l9.484,9.517l21.16-21.194C40.924,0.301,41.656,0,42.516,0c0.861,0,1.592,0.301,2.194,0.903
		l4.388,4.388C49.699,5.893,50,6.624,50,7.484z"/>
</g>
<g id="Layer_1">
</g>
</svg>
