<?xml version="1.0" encoding="iso-8859-1"?>
<!-- Generator: Adobe Illustrator 19.0.0, SVG Export Plug-In . SVG Version: 6.00 Build 0)  -->
<svg  id="Stats" version="1.1" xmlns="http://www.w3.org/2000/svg" xmlns:xlink="http://www.w3.org/1999/xlink" x="0px" y="0px"
	 viewBox="0 0 49.579 44.38" style="enable-background:new 0 0 49.579 44.38;" xml:space="preserve">
<g id="Layer_1_1_">
	<path fill="#fff" id="XMLID_6_" d="M6.77,44.38H2.939C1.316,44.38,0,43.064,0,41.441v-1.724c0-1.623,1.316-2.939,2.939-2.939H6.77
		c1.623,0,2.939,1.316,2.939,2.939v1.724C9.71,43.064,8.394,44.38,6.77,44.38z"/>
	<path fill="#fff" id="XMLID_5_" d="M20.06,44.38h-3.831c-1.623,0-2.939-1.316-2.939-2.939v-9.25c0-1.623,1.316-2.939,2.939-2.939h3.831
		c1.623,0,2.939,1.316,2.939,2.939v9.25C23,43.064,21.684,44.38,20.06,44.38z"/>
	<path fill="#fff" id="XMLID_4_" d="M33.35,44.38h-3.831c-1.623,0-2.939-1.316-2.939-2.939V17.565c0-1.623,1.316-2.939,2.939-2.939h3.831
		c1.623,0,2.939,1.316,2.939,2.939v23.876C36.29,43.064,34.974,44.38,33.35,44.38z"/>
	<path fill="#fff" id="XMLID_3_" d="M46.639,44.38h-3.831c-1.623,0-2.939-1.316-2.939-2.939V2.939C39.869,1.316,41.185,0,42.808,0h3.831
		c1.623,0,2.939,1.316,2.939,2.939v38.502C49.579,43.064,48.263,44.38,46.639,44.38z"/>
</g>
</svg>
