<?xml version="1.0" encoding="iso-8859-1"?>
<!-- Generator: Adobe Illustrator 19.0.0, SVG Export Plug-In . SVG Version: 6.00 Build 0)  -->
<svg id="Leaderboard" version="1.1" xmlns="http://www.w3.org/2000/svg" xmlns:xlink="http://www.w3.org/1999/xlink" x="0px" y="0px"
	 viewBox="0 0 46.749 46.906" style="enable-background:new 0 0 46.749 46.906;" xml:space="preserve">
<g id="Layer_9">
	<path fill="fffff5" id="XMLID_122_" d="M9.682,25.886v4.182H0.158C0.054,29.437,0,28.964,0,28.649c0-0.896,0.207-1.711,0.619-2.448
		c0.411-0.736,0.908-1.332,1.486-1.788c0.579-0.456,1.158-0.872,1.738-1.25c0.578-0.377,1.073-0.758,1.486-1.144
		c0.411-0.385,0.617-0.78,0.617-1.184c0-0.438-0.127-0.775-0.381-1.013c-0.253-0.237-0.6-0.354-1.038-0.354
		c-0.807,0-1.518,0.508-2.132,1.526l-2.236-1.552c0.421-0.894,1.048-1.592,1.882-2.092C2.872,16.85,3.798,16.6,4.815,16.6
		c1.28,0,2.358,0.364,3.235,1.09c0.877,0.73,1.317,1.715,1.317,2.961c0,0.877-0.299,1.679-0.896,2.407
		c-0.595,0.728-1.253,1.293-1.972,1.696c-0.72,0.404-1.381,0.847-1.988,1.329c-0.605,0.483-0.916,0.943-0.934,1.38H6.92v-1.578
		H9.682z M9.629,42.38c0,1.404-0.478,2.508-1.434,3.315s-2.144,1.211-3.565,1.211c-1.859,0-3.367-0.579-4.524-1.736l1.499-2.315
		c0.859,0.788,1.79,1.184,2.79,1.184c0.508,0,0.951-0.128,1.328-0.381c0.377-0.255,0.567-0.628,0.567-1.119
		c0-1.122-0.921-1.614-2.763-1.473l-0.684-1.473c0.139-0.174,0.424-0.555,0.855-1.144c0.43-0.587,0.802-1.06,1.119-1.421
		c0.315-0.359,0.639-0.696,0.973-1.013v-0.025c-0.282,0-0.707,0.008-1.277,0.025c-0.57,0.019-0.995,0.027-1.275,0.027v1.394H0.448
		v-3.999h8.761v2.315L6.71,38.777c0.894,0.21,1.605,0.641,2.13,1.29C9.367,40.714,9.629,41.486,9.629,42.38z M9.708,10.628v2.605
		H0.896v-2.605h2.814c0-0.718,0.005-1.79,0.014-3.209c0.008-1.421,0.013-2.481,0.013-3.184V3.92H3.684
		C3.543,4.217,3.105,4.69,2.369,5.339L0.5,3.341L4.078,0h2.788v10.628H9.708z M46.749,7.34v5.051c0,0.228-0.084,0.426-0.25,0.592
		c-0.168,0.166-0.364,0.25-0.592,0.25h-31.99c-0.229,0-0.426-0.084-0.592-0.25c-0.168-0.166-0.25-0.364-0.25-0.592V7.34
		c0-0.228,0.082-0.426,0.25-0.592c0.166-0.166,0.362-0.25,0.592-0.25h31.99c0.228,0,0.424,0.084,0.592,0.25
		C46.666,6.914,46.749,7.112,46.749,7.34z M46.749,20.808v5.051c0,0.229-0.084,0.426-0.25,0.592c-0.168,0.168-0.364,0.25-0.592,0.25
		h-31.99c-0.229,0-0.426-0.082-0.592-0.25c-0.168-0.166-0.25-0.362-0.25-0.592v-5.051c0-0.245,0.079-0.446,0.236-0.605
		c0.158-0.158,0.359-0.237,0.606-0.237h31.99c0.228,0,0.424,0.084,0.592,0.25C46.666,20.384,46.749,20.582,46.749,20.808z
		 M46.749,34.278v5.051c0,0.228-0.084,0.426-0.25,0.592c-0.168,0.168-0.364,0.25-0.592,0.25h-31.99c-0.229,0-0.426-0.082-0.592-0.25
		c-0.168-0.166-0.25-0.364-0.25-0.592v-5.051c0-0.245,0.079-0.446,0.236-0.605c0.158-0.158,0.359-0.237,0.606-0.237h31.99
		c0.228,0,0.424,0.084,0.592,0.25C46.666,33.854,46.749,34.05,46.749,34.278z"/>
</g>
</svg>
