<?xml version="1.0" encoding="UTF-8" standalone="no"?>
<!-- Created with Inkscape (http://www.inkscape.org/) -->

<svg
   xmlns:dc="http://purl.org/dc/elements/1.1/"
   xmlns:cc="http://creativecommons.org/ns#"
   xmlns:rdf="http://www.w3.org/1999/02/22-rdf-syntax-ns#"
   xmlns:svg="http://www.w3.org/2000/svg"
   xmlns="http://www.w3.org/2000/svg"
   xmlns:sodipodi="http://sodipodi.sourceforge.net/DTD/sodipodi-0.dtd"
   xmlns:inkscape="http://www.inkscape.org/namespaces/inkscape"
   version="1.1"
   width="100%"
   height="100%"
   viewBox="0 0 45.44 48.872"
   id="Quizzes"
   xml:space="preserve"
   inkscape:version="0.48.4 r9939"
   sodipodi:docname="icon-quizzes-white.svg"><sodipodi:namedview
     pagecolor="#ffffff"
     bordercolor="#666666"
     borderopacity="1"
     objecttolerance="10"
     gridtolerance="10"
     guidetolerance="10"
     inkscape:pageopacity="0"
     inkscape:pageshadow="2"
     inkscape:window-width="1112"
     inkscape:window-height="838"
     id="namedview19"
     showgrid="false"
     inkscape:zoom="4.8289409"
     inkscape:cx="-13.726915"
     inkscape:cy="24.436"
     inkscape:window-x="239"
     inkscape:window-y="294"
     inkscape:window-maximized="0"
     inkscape:current-layer="Quizzes" /><metadata
     id="metadata13"><rdf:RDF><cc:Work
         rdf:about=""><dc:format>image/svg+xml</dc:format><dc:type
           rdf:resource="http://purl.org/dc/dcmitype/StillImage" /><dc:title /></cc:Work></rdf:RDF></metadata><defs
     id="defs11" /><g
     id="Layer_3"><g
       id="XMLID_103_"><path
         d="M 44.762,4.768 41.24,1.246 c -0.904,-0.904 -2.369,-0.904 -3.273,0 l -2.795,2.795 c -0.515,0.515 -0.515,1.35 0,1.865 l 4.93,4.93 c 0.515,0.515 1.35,0.515 1.865,0 l 2.795,-2.795 c 0.904,-0.904 0.904,-2.369 0,-3.273 z"
         id="XMLID_104_" /><path
         d="m 12.84,27.115 -2.545,7.415 c -0.252,0.733 0.45,1.435 1.183,1.183 l 7.415,-2.545 c 0.522,-0.179 0.676,-0.843 0.285,-1.234 l -5.105,-5.105 c -0.389,-0.39 -1.054,-0.236 -1.233,0.286 z"
         id="XMLID_105_" /><path
         d="m 15.22,25.795 4.765,4.765 c 0.498,0.498 1.319,0.484 1.834,-0.031 L 38.77,13.578 c 0.515,-0.515 0.529,-1.336 0.031,-1.834 L 34.036,6.979 C 33.538,6.481 32.717,6.495 32.202,7.01 L 15.251,23.961 c -0.515,0.515 -0.529,1.336 -0.031,1.834 z"
         id="XMLID_106_" /><path
         d="m 39.658,18.283 c -1.037,0 -1.878,0.988 -1.878,2.207 v 22.201 c 0,1.011 -0.698,1.831 -1.558,1.831 H 5.252 c -0.861,0 -1.558,-0.82 -1.558,-1.831 V 6.29 c 0,-1.011 0.698,-1.831 1.558,-1.831 h 18.856 c 1.037,0 1.878,-0.988 1.878,-2.207 C 25.985,1.033 25.145,0 24.107,0 H 2.872 C 1.286,0 0,1.511 0,3.376 v 42.12 c 0,1.865 1.286,3.376 2.872,3.376 h 35.837 c 1.586,0 2.872,-1.511 2.872,-3.376 V 20.49 c 0,-1.219 -0.886,-2.207 -1.923,-2.207 z"
         id="XMLID_107_" /></g></g><path
     d="m 17.841226,28.236005 c -1.416607,-1.395233 -2.648441,-2.723164 -2.737409,-2.950958 -0.09708,-0.248566 -0.0533,-0.621173 0.109495,-0.931881 0.14919,-0.284741 4.124377,-4.361722 8.833749,-9.059958 6.508955,-6.4935627 8.681521,-8.5422453 9.058795,-8.5422453 0.358746,0 1.239592,0.7373149 3.178122,2.6602577 2.16058,2.1432076 2.68182,2.7724966 2.68182,3.2377336 0,0.484886 -1.407785,1.984125 -8.78026,9.350658 -6.661286,6.655916 -8.899527,8.773181 -9.274461,8.773181 -0.353812,0 -1.225875,-0.720634 -3.069851,-2.536788 z"
     id="path3806"
     style="fill:#fffff5;fill-opacity:0;stroke:none" /><path
     d="m 17.841226,28.236005 c -1.416607,-1.395233 -2.648441,-2.723164 -2.737409,-2.950958 -0.09708,-0.248566 -0.0533,-0.621173 0.109495,-0.931881 0.14919,-0.284741 4.124377,-4.361722 8.833749,-9.059958 6.508955,-6.4935627 8.681521,-8.5422453 9.058795,-8.5422453 0.358746,0 1.239592,0.7373149 3.178122,2.6602577 2.16058,2.1432076 2.68182,2.7724966 2.68182,3.2377336 0,0.484886 -1.407785,1.984125 -8.78026,9.350658 -6.661286,6.655916 -8.899527,8.773181 -9.274461,8.773181 -0.353812,0 -1.225875,-0.720634 -3.069851,-2.536788 z"
     id="path3808"
     style="fill:#fffff5;fill-opacity:0;stroke:none" /><path
     d="m 10.551664,35.235053 c -0.287684,-0.346638 -0.352609,-0.102804 1.284645,-4.824658 1.086907,-3.13465 1.293219,-3.572212 1.684305,-3.572212 0.634124,0 5.789226,5.183932 5.686574,5.718376 -0.05821,0.303085 -0.909777,0.680344 -3.799917,1.683438 -3.944018,1.368869 -4.45796,1.474191 -4.855607,0.995056 z"
     id="path3810"
     style="fill:#fffff5;fill-opacity:0;stroke:none" /><path
     d="m 17.841226,28.236005 c -1.416607,-1.395233 -2.648441,-2.723164 -2.737409,-2.950958 -0.09708,-0.248566 -0.0533,-0.621173 0.109495,-0.931881 0.14919,-0.284741 4.124377,-4.361722 8.833749,-9.059958 6.508955,-6.4935627 8.681521,-8.5422453 9.058795,-8.5422453 0.358746,0 1.239592,0.7373149 3.178122,2.6602577 2.16058,2.1432076 2.68182,2.7724966 2.68182,3.2377336 0,0.484886 -1.407785,1.984125 -8.78026,9.350658 -6.661286,6.655916 -8.899527,8.773181 -9.274461,8.773181 -0.353812,0 -1.225875,-0.720634 -3.069851,-2.536788 z"
     id="path3812"
     style="fill:#fffff5;fill-opacity:1;stroke:none" /><path
     d="m 18.406598,28.562168 c -1.148072,-1.101946 -2.371294,-2.361981 -2.718272,-2.800077 -0.62282,-0.786374 -0.626191,-0.803746 -0.264208,-1.361587 0.476113,-0.733724 13.312727,-13.684923 15.670696,-15.8105777 0.995625,-0.8975334 1.951385,-1.6318788 2.123913,-1.6318788 0.390419,0 5.006745,4.4462885 5.394168,5.1954785 0.265714,0.513837 0.23617,0.606278 -0.465322,1.455895 -1.064045,1.288725 -13.060529,13.355162 -15.229078,15.317881 -0.995625,0.901123 -1.948437,1.638406 -2.11736,1.638406 -0.168923,0 -1.246465,-0.901593 -2.394537,-2.00354 z"
     id="path3814"
     style="fill:#fffff5;fill-opacity:1;stroke:#fffff5;stroke-opacity:1;stroke-width:1.20000004;stroke-miterlimit:4;stroke-dasharray:none" /><path
     d="m 10.551664,35.235053 c -0.287684,-0.346638 -0.352609,-0.102804 1.284645,-4.824658 1.086907,-3.13465 1.293219,-3.572212 1.684305,-3.572212 0.634124,0 5.789226,5.183932 5.686574,5.718376 -0.05821,0.303085 -0.909777,0.680344 -3.799917,1.683438 -3.944018,1.368869 -4.45796,1.474191 -4.855607,0.995056 z"
     id="path3816"
     style="fill:#fffff5;fill-opacity:1;stroke:#fffff5;stroke-opacity:1;stroke-width:1.00000003;stroke-miterlimit:4;stroke-dasharray:none;stroke-dashoffset:0" /><path
     d="M 1.617626,48.319098 C 0.091052,47.29928 0.18986051,48.954554 0.18950147,24.394653 0.18915226,0.50691765 0.12379108,1.8681652 1.3250305,0.74550508 L 1.878979,0.22779322 13.152481,0.17084659 c 7.615002,-0.0384662 11.405932,0.0139287 11.681583,0.16145246 1.086717,0.58159296 1.297812,2.47342445 0.384474,3.44562995 l -0.45847,0.4880168 -9.703536,0 c -10.9782116,0 -10.946839,-0.00382 -11.3314555,1.3812797 -0.3289914,1.1847842 -0.2837222,36.7868285 0.048003,37.7523385 0.1361011,0.39613 0.4798054,0.836769 0.7648795,0.9806 0.4030027,0.203326 4.0198753,0.261877 16.323853,0.264255 l 15.806143,0.003 0.605323,-0.605325 0.605325,-0.605324 0,-11.581773 c 0,-7.689672 0.07444,-11.795304 0.221502,-12.217177 0.292439,-0.838891 1.428092,-1.414547 2.105795,-1.067416 0.257591,0.131943 0.629354,0.438663 0.82614,0.6816 0.330638,0.408176 0.35812,1.455542 0.362078,13.798669 0.0048,14.891988 0.06222,14.275832 -1.42352,15.268373 l -0.703651,0.470076 -18.472835,0 -18.4728366,0 -0.7036497,-0.470068 z"
     id="path3818"
     style="fill:#fffff5;fill-opacity:1;stroke:#fffff5;stroke-opacity:1;stroke-width:1.20000004;stroke-miterlimit:4;stroke-dasharray:none" /><path
     d="M 37.745118,8.3531575 C 34.260589,4.8927134 34.287554,5.0619922 36.822752,2.5627191 c 1.735582,-1.71098766 1.894809,-1.81721402 2.723899,-1.81721402 0.843612,0 0.979074,0.0971922 3.228008,2.31604392 3.285182,3.2412401 3.300382,3.5427459 0.324332,6.4332866 -1.071512,1.0407244 -1.816866,1.6049064 -2.120279,1.6049064 -0.323265,0 -1.322783,-0.848981 -3.233594,-2.7465845 z"
     id="path3820"
     style="fill:#fffff5;fill-opacity:1;stroke:#fffff5;stroke-opacity:1;stroke-width:1.00000003;stroke-miterlimit:4;stroke-dasharray:none" /></svg>