<?xml version="1.0" encoding="UTF-8" standalone="no"?>
<!-- Created with Inkscape (http://www.inkscape.org/) -->

<svg
   xmlns:dc="http://purl.org/dc/elements/1.1/"
   xmlns:cc="http://creativecommons.org/ns#"
   xmlns:rdf="http://www.w3.org/1999/02/22-rdf-syntax-ns#"
   xmlns:svg="http://www.w3.org/2000/svg"
   xmlns="http://www.w3.org/2000/svg"
   version="1.1"
   width="100%"
   height="100%"
   viewBox="0 0 46.749 46.906"
   id="Leaderboard"
   xml:space="preserve"><metadata
     id="metadata9"><rdf:RDF><cc:Work
         rdf:about=""><dc:format>image/svg+xml</dc:format><dc:type
           rdf:resource="http://purl.org/dc/dcmitype/StillImage" /><dc:title></dc:title></cc:Work></rdf:RDF></metadata><defs
     id="defs7" /><g
     id="Layer_9"
     style="fill:#fffff5;fill-opacity:1"><path
       d="m 9.682,25.886 v 4.182 H 0.158 C 0.054,29.437 0,28.964 0,28.649 0,27.753 0.207,26.938 0.619,26.201 1.03,25.465 1.527,24.869 2.105,24.413 c 0.579,-0.456 1.158,-0.872 1.738,-1.25 0.578,-0.377 1.073,-0.758 1.486,-1.144 0.411,-0.385 0.617,-0.78 0.617,-1.184 0,-0.438 -0.127,-0.775 -0.381,-1.013 -0.253,-0.237 -0.6,-0.354 -1.038,-0.354 -0.807,0 -1.518,0.508 -2.132,1.526 L 0.159,19.442 C 0.58,18.548 1.207,17.85 2.041,17.35 2.872,16.85 3.798,16.6 4.815,16.6 c 1.28,0 2.358,0.364 3.235,1.09 0.877,0.73 1.317,1.715 1.317,2.961 0,0.877 -0.299,1.679 -0.896,2.407 -0.595,0.728 -1.253,1.293 -1.972,1.696 -0.72,0.404 -1.381,0.847 -1.988,1.329 -0.605,0.483 -0.916,0.943 -0.934,1.38 H 6.92 V 25.885 H 9.682 z M 9.629,42.38 c 0,1.404 -0.478,2.508 -1.434,3.315 -0.956,0.807 -2.144,1.211 -3.565,1.211 -1.859,0 -3.367,-0.579 -4.524,-1.736 l 1.499,-2.315 c 0.859,0.788 1.79,1.184 2.79,1.184 0.508,0 0.951,-0.128 1.328,-0.381 C 6.1,43.403 6.29,43.03 6.29,42.539 6.29,41.417 5.369,40.925 3.527,41.066 L 2.843,39.593 C 2.982,39.419 3.267,39.038 3.698,38.449 4.128,37.862 4.5,37.389 4.817,37.028 5.132,36.669 5.456,36.332 5.79,36.015 V 35.99 c -0.282,0 -0.707,0.008 -1.277,0.025 -0.57,0.019 -0.995,0.027 -1.275,0.027 v 1.394 h -2.79 v -3.999 h 8.761 v 2.315 L 6.71,38.777 c 0.894,0.21 1.605,0.641 2.13,1.29 0.527,0.647 0.789,1.419 0.789,2.313 z M 9.708,10.628 v 2.605 H 0.896 V 10.628 H 3.71 C 3.71,9.91 3.715,8.838 3.724,7.419 3.732,5.998 3.737,4.938 3.737,4.235 V 3.92 H 3.684 C 3.543,4.217 3.105,4.69 2.369,5.339 L 0.5,3.341 4.078,0 H 6.866 V 10.628 H 9.708 z M 46.749,7.34 v 5.051 c 0,0.228 -0.084,0.426 -0.25,0.592 -0.168,0.166 -0.364,0.25 -0.592,0.25 h -31.99 c -0.229,0 -0.426,-0.084 -0.592,-0.25 -0.168,-0.166 -0.25,-0.364 -0.25,-0.592 V 7.34 c 0,-0.228 0.082,-0.426 0.25,-0.592 0.166,-0.166 0.362,-0.25 0.592,-0.25 h 31.99 c 0.228,0 0.424,0.084 0.592,0.25 0.167,0.166 0.25,0.364 0.25,0.592 z m 0,13.468 v 5.051 c 0,0.229 -0.084,0.426 -0.25,0.592 -0.168,0.168 -0.364,0.25 -0.592,0.25 h -31.99 c -0.229,0 -0.426,-0.082 -0.592,-0.25 -0.168,-0.166 -0.25,-0.362 -0.25,-0.592 v -5.051 c 0,-0.245 0.079,-0.446 0.236,-0.605 0.158,-0.158 0.359,-0.237 0.606,-0.237 h 31.99 c 0.228,0 0.424,0.084 0.592,0.25 0.167,0.168 0.25,0.366 0.25,0.592 z m 0,13.47 v 5.051 c 0,0.228 -0.084,0.426 -0.25,0.592 -0.168,0.168 -0.364,0.25 -0.592,0.25 h -31.99 c -0.229,0 -0.426,-0.082 -0.592,-0.25 -0.168,-0.166 -0.25,-0.364 -0.25,-0.592 v -5.051 c 0,-0.245 0.079,-0.446 0.236,-0.605 0.158,-0.158 0.359,-0.237 0.606,-0.237 h 31.99 c 0.228,0 0.424,0.084 0.592,0.25 0.167,0.168 0.25,0.364 0.25,0.592 z"
       id="XMLID_122_"
       style="fill:#fffff5;fill-opacity:1" /></g></svg>