<?xml version="1.0" encoding="iso-8859-1"?>
<!-- Generator: Adobe Illustrator 19.0.0, SVG Export Plug-In . SVG Version: 6.00 Build 0)  -->
<svg id="Quizzes" version="1.1" xmlns="http://www.w3.org/2000/svg" xmlns:xlink="http://www.w3.org/1999/xlink" x="0px" y="0px"
	 viewBox="0 0 45.44 48.872" style="enable-background:new 0 0 45.44 48.872 fill:#fffff5;" xml:space="preserve">
<g id="Layer_3" fill="fffff5">
	<g id="XMLID_103_" fill="fffff5">
		<path fill="fffff5" id="XMLID_104_" d="M44.762,4.768L41.24,1.246c-0.904-0.904-2.369-0.904-3.273,0l-2.795,2.795
			c-0.515,0.515-0.515,1.35,0,1.865l4.93,4.93c0.515,0.515,1.35,0.515,1.865,0l2.795-2.795C45.666,7.137,45.666,5.672,44.762,4.768z
			"/>
		<path fill="fffff5" id="XMLID_105_" d="M12.84,27.115l-2.545,7.415c-0.252,0.733,0.45,1.435,1.183,1.183l7.415-2.545
			c0.522-0.179,0.676-0.843,0.285-1.234l-5.105-5.105C13.684,26.439,13.019,26.593,12.84,27.115z"/>
		<path fill="fffff5" id="XMLID_106_" d="M15.22,25.795l4.765,4.765c0.498,0.498,1.319,0.484,1.834-0.031L38.77,13.578
			c0.515-0.515,0.529-1.336,0.031-1.834l-4.765-4.765c-0.498-0.498-1.319-0.484-1.834,0.031L15.251,23.961
			C14.736,24.476,14.722,25.297,15.22,25.795z"/>
		<path fill="fffff5" id="XMLID_107_" d="M39.658,18.283c-1.037,0-1.878,0.988-1.878,2.207v22.201
			c0,1.011-0.698,1.831-1.558,1.831H5.252c-0.861,0-1.558-0.82-1.558-1.831V6.29c0-1.011,0.698-1.831,1.558-1.831h18.856
			c1.037,0,1.878-0.988,1.878-2.207C25.985,1.033,25.145,0,24.107,0H2.872C1.286,0,0,1.511,0,3.376v42.12
			c0,1.865,1.286,3.376,2.872,3.376h35.837c1.586,0,2.872-1.511,2.872-3.376V20.49C41.581,19.271,40.695,18.283,39.658,18.283z"/>
	</g>
</g>
</svg>
