<?xml version="1.0" encoding="iso-8859-1"?>
<!-- Generator: Adobe Illustrator 19.0.0, SVG Export Plug-In . SVG Version: 6.00 Build 0)  -->
<svg id="Logout" version="1.1" xmlns="http://www.w3.org/2000/svg" xmlns:xlink="http://www.w3.org/1999/xlink" x="0px" y="0px"
	 viewBox="0 0 33.555 48.667" style="enable-background:new 0 0 33.555 48.667;" xml:space="preserve">
<g id="Layer_7">
	<path id="XMLID_162_" d="M0,2.066v0.042c0,1.141,0.925,2.066,2.066,2.066h25.957c0.795,0,1.439,0.644,1.439,1.439v37.419
		c0,0.795-0.644,1.439-1.439,1.439H2.066C0.925,44.472,0,45.397,0,46.538V46.6c0,1.141,0.925,2.066,2.066,2.066h28.407
		c1.702,0,3.082-1.38,3.082-3.082V3.082C33.555,1.38,32.176,0,30.473,0H2.066C0.925,0,0,0.925,0,2.066z"/>
	<path id="XMLID_161_" d="M12.487,15.662v3.102c0,0.763-0.619,1.382-1.382,1.382H3.572c-0.817,0-1.48,0.663-1.48,1.48v4.922
		c0,0.817,0.663,1.48,1.48,1.48h7.533c0.763,0,1.382,0.619,1.382,1.382v3.144c0,0.863,1.007,1.335,1.67,0.782l9.799-8.17
		c0.661-0.551,0.661-1.566,0-2.116l-9.799-8.17C13.494,14.328,12.487,14.799,12.487,15.662z"/>
</g>
<g id="Layer_1">
</g>
</svg>
