<?xml version="1.0" encoding="iso-8859-1"?>
<!-- Generator: Adobe Illustrator 19.0.0, SVG Export Plug-In . SVG Version: 6.00 Build 0)  -->
<svg id="Manage" version="1.1" xmlns="http://www.w3.org/2000/svg" xmlns:xlink="http://www.w3.org/1999/xlink" x="0px" y="0px"
	 viewBox="0 0 39.645 49.213" style="enable-background:new 0 0 39.645 49.213;" xml:space="preserve">
<g id="Layer_4">
	<path fill="fffff5" id="XMLID_107_" d="M28.335,3.119v2.253c0,1.089,0.883,1.971,1.971,1.971h3.784c0.728,0,1.318,0.59,1.318,1.318v35.013
		c0,0.728-0.59,1.318-1.318,1.318H5.557c-0.728,0-1.318-0.59-1.318-1.318V8.661c0-0.728,0.59-1.318,1.318-1.318h3.784
		c1.089,0,1.971-0.883,1.971-1.971V3.119H3.029C1.356,3.119,0,4.475,0,6.147v40.037c0,1.673,1.356,3.029,3.029,3.029h33.588
		c1.673,0,3.029-1.356,3.029-3.029V6.147c0-1.673-1.356-3.029-3.029-3.029H28.335z"/>
	<path fill="fffff5" id="XMLID_104_" d="M27.537,9.705c-1.574-0.403-2.67-1.708-2.67-3.333V5.015c0-2.77-2.245-5.015-5.015-5.015H19.75
		c-2.77,0-5.015,2.245-5.015,5.015v1.369c0,1.617-1.086,2.919-2.651,3.327c-2.034,0.53-3.535,2.493-3.535,4.693v0.063
		c0,0.819,0.664,1.483,1.483,1.483h19.576c0.819,0,1.483-0.664,1.483-1.483v-0.063C31.093,12.196,29.581,10.228,27.537,9.705z
		 M19.822,6.604c-0.839,0-1.519-0.68-1.519-1.519s0.68-1.519,1.519-1.519s1.519,0.68,1.519,1.519S20.661,6.604,19.822,6.604z"/>
	<path fill="fffff5" id="XMLID_103_" d="M29.202,26.107c0.94-0.94,0.94-2.465,0-3.406c-0.941-0.94-2.465-0.94-3.406,0l-7.93,7.93l-2.899-2.899
		c-0.94-0.94-2.465-0.94-3.406,0c-0.94,0.941-0.94,2.465,0,3.406l5.065,5.065c0.684,0.684,1.794,0.684,2.478,0L29.202,26.107z"/>
</g>
</svg>
