<?xml version="1.0" encoding="iso-8859-1"?>
<!-- Generator: Adobe Illustrator 19.0.0, SVG Export Plug-In . SVG Version: 6.00 Build 0)  -->
<svg version="1.1" xmlns="http://www.w3.org/2000/svg" xmlns:xlink="http://www.w3.org/1999/xlink" x="0px" y="0px"
	 viewBox="0 0 45.406 48.792" style="enable-background:new 0 0 45.406 48.792;" xml:space="preserve">
<g id="Layer_3">
	<g id="XMLID_103_">
		<path id="XMLID_104_" style="fill:#231F20;" d="M-161.553,4.768l-3.522-3.522c-0.904-0.904-2.369-0.904-3.273,0l-2.795,2.795
			c-0.515,0.515-0.515,1.35,0,1.865l4.93,4.93c0.515,0.515,1.35,0.515,1.865,0l2.795-2.795
			C-160.649,7.137-160.649,5.672-161.553,4.768z"/>
		<path id="XMLID_105_" style="fill:#231F20;" d="M-193.475,27.115l-2.545,7.415c-0.252,0.733,0.45,1.435,1.183,1.183l7.415-2.545
			c0.522-0.179,0.676-0.843,0.285-1.234l-5.105-5.105C-192.632,26.439-193.296,26.593-193.475,27.115z"/>
		<path id="XMLID_106_" style="fill:#231F20;" d="M-191.095,25.795l4.765,4.765c0.498,0.498,1.319,0.484,1.834-0.031l16.951-16.951
			c0.515-0.515,0.529-1.336,0.031-1.834l-4.765-4.765c-0.498-0.498-1.319-0.484-1.834,0.031l-16.951,16.951
			C-191.579,24.476-191.593,25.297-191.095,25.795z"/>
		<path id="XMLID_107_" style="fill:#231F20;" d="M-166.658,18.283c-1.037,0-1.878,0.988-1.878,2.207v22.201
			c0,1.011-0.698,1.831-1.558,1.831h-30.97c-0.861,0-1.558-0.82-1.558-1.831V6.29c0-1.011,0.698-1.831,1.558-1.831h18.856
			c1.037,0,1.878-0.988,1.878-2.207c0-1.219-0.841-2.252-1.878-2.252h-21.235c-1.586,0-2.872,1.511-2.872,3.376v42.12
			c0,1.865,1.286,3.376,2.872,3.376h35.837c1.586,0,2.872-1.511,2.872-3.376V20.49C-164.734,19.271-165.62,18.283-166.658,18.283z"
			/>
	</g>
	<g id="XMLID_89_">
		<path id="XMLID_93_" style="fill:#231F20;" d="M30.357,3.695c0-1.104-0.762-2.04-1.701-2.04H9.419
			c-1.437,0-2.602,1.369-2.602,3.058V42.87c0,1.689,1.165,3.058,2.602,3.058h32.464c1.437,0,2.602-1.369,2.602-3.058V20.217
			c0-1.104-0.803-1.999-1.743-1.999c-0.94,0-1.701,0.895-1.701,1.999v20.111c0,0.916-0.632,1.659-1.412,1.659H11.574
			c-0.78,0-1.412-0.743-1.412-1.659V7.354c0-0.916,0.632-1.659,1.412-1.659h17.081C29.595,5.695,30.357,4.8,30.357,3.695z"/>
		<g id="XMLID_90_">
			<path id="XMLID_91_" style="fill:#231F20;" d="M32.968,9.981l-0.046-2.744v-4.71c0.731-0.152,1.6-0.228,2.606-0.228
				c1.007,0,1.876,0.076,2.607,0.228v4.71l-0.046,2.744l2.698-0.046h4.39c0.152,0.976,0.229,1.829,0.229,2.561
				c0,0.731-0.077,1.508-0.229,2.332h-4.39l-2.698-0.046l0.046,2.652v4.756c-0.731,0.153-1.6,0.229-2.607,0.229
				c-1.006,0-1.875-0.076-2.606-0.229v-4.756l0.046-2.652l-2.698,0.046h-4.39c-0.153-0.61-0.229-1.418-0.229-2.424
				s0.076-1.83,0.229-2.47h4.39L32.968,9.981z"/>
		</g>
	</g>
</g>
<g id="Layer_1">
</g>
</svg>
