<?xml version="1.0" encoding="iso-8859-1"?>
<!-- Generator: Adobe Illustrator 19.0.0, SVG Export Plug-In . SVG Version: 6.00 Build 0)  -->
<svg version="1.1" xmlns="http://www.w3.org/2000/svg" xmlns:xlink="http://www.w3.org/1999/xlink" x="0px" y="0px"
	 viewBox="0 0 45.237 45.237" style="enable-background:new 0 0 45.237 45.237;" xml:space="preserve">
<g id="Layer_6">
	<path id="XMLID_254_" d="M45.237,36.404c0,1.014-0.355,1.879-1.066,2.59l-5.179,5.177c-0.711,0.711-1.573,1.066-2.59,1.066
		s-1.879-0.355-2.59-1.066L22.617,32.976L11.423,44.17c-0.711,0.711-1.573,1.066-2.59,1.066c-1.014,0-1.879-0.355-2.588-1.066
		l-5.179-5.177C0.355,38.282,0,37.418,0,36.404c0-1.016,0.355-1.879,1.066-2.59l11.195-11.195L1.066,11.424
		C0.355,10.714,0,9.851,0,8.835c0-1.014,0.355-1.879,1.066-2.59l5.179-5.179C6.954,0.357,7.819,0,8.833,0
		c1.016,0,1.879,0.357,2.59,1.066l11.195,11.195L33.812,1.066C34.523,0.357,35.386,0,36.402,0s1.879,0.357,2.59,1.066l5.179,5.179
		c0.711,0.711,1.066,1.575,1.066,2.59c0,1.016-0.355,1.879-1.066,2.59L32.976,22.619L44.17,33.814
		C44.881,34.525,45.237,35.387,45.237,36.404z"/>
</g>
<g id="Layer_1">
</g>
</svg>
