<?xml version="1.0" encoding="UTF-8" standalone="no"?>
<!-- Created with Inkscape (http://www.inkscape.org/) -->

<svg
   xmlns:dc="http://purl.org/dc/elements/1.1/"
   xmlns:cc="http://creativecommons.org/ns#"
   xmlns:rdf="http://www.w3.org/1999/02/22-rdf-syntax-ns#"
   xmlns:svg="http://www.w3.org/2000/svg"
   xmlns="http://www.w3.org/2000/svg"
   version="1.1"
   width="100%"
   height="100%"
   viewBox="0 0 45.406 48.792"
   id="svg2"
   xml:space="preserve"><metadata
     id="metadata19"><rdf:RDF><cc:Work
         rdf:about=""><dc:format>image/svg+xml</dc:format><dc:type
           rdf:resource="http://purl.org/dc/dcmitype/StillImage" /><dc:title></dc:title></cc:Work></rdf:RDF></metadata><defs
     id="defs17" /><g
     id="Layer_3"
     style="fill:#fffff5;fill-opacity:1;stroke:none"><g
       id="XMLID_103_"
       style="fill:#fffff5;fill-opacity:1;stroke:none"><path
         d="m -161.553,4.768 -3.522,-3.522 c -0.904,-0.904 -2.369,-0.904 -3.273,0 l -2.795,2.795 c -0.515,0.515 -0.515,1.35 0,1.865 l 4.93,4.93 c 0.515,0.515 1.35,0.515 1.865,0 l 2.795,-2.795 c 0.904,-0.904 0.904,-2.369 0,-3.273 z"
         id="XMLID_104_"
         style="fill:#fffff5;fill-opacity:1;stroke:none" /><path
         d="m -193.475,27.115 -2.545,7.415 c -0.252,0.733 0.45,1.435 1.183,1.183 l 7.415,-2.545 c 0.522,-0.179 0.676,-0.843 0.285,-1.234 l -5.105,-5.105 c -0.39,-0.39 -1.054,-0.236 -1.233,0.286 z"
         id="XMLID_105_"
         style="fill:#fffff5;fill-opacity:1;stroke:none" /><path
         d="m -191.095,25.795 4.765,4.765 c 0.498,0.498 1.319,0.484 1.834,-0.031 l 16.951,-16.951 c 0.515,-0.515 0.529,-1.336 0.031,-1.834 l -4.765,-4.765 c -0.498,-0.498 -1.319,-0.484 -1.834,0.031 l -16.951,16.951 c -0.515,0.515 -0.529,1.336 -0.031,1.834 z"
         id="XMLID_106_"
         style="fill:#fffff5;fill-opacity:1;stroke:none" /><path
         d="m -166.658,18.283 c -1.037,0 -1.878,0.988 -1.878,2.207 v 22.201 c 0,1.011 -0.698,1.831 -1.558,1.831 h -30.97 c -0.861,0 -1.558,-0.82 -1.558,-1.831 V 6.29 c 0,-1.011 0.698,-1.831 1.558,-1.831 h 18.856 c 1.037,0 1.878,-0.988 1.878,-2.207 0,-1.219 -0.841,-2.252 -1.878,-2.252 h -21.235 c -1.586,0 -2.872,1.511 -2.872,3.376 v 42.12 c 0,1.865 1.286,3.376 2.872,3.376 h 35.837 c 1.586,0 2.872,-1.511 2.872,-3.376 V 20.49 c 0,-1.219 -0.886,-2.207 -1.924,-2.207 z"
         id="XMLID_107_"
         style="fill:#fffff5;fill-opacity:1;stroke:none" /></g><g
       id="XMLID_89_"
       style="fill:#fffff5;fill-opacity:1;stroke:none"><path
         d="m 30.357,3.695 c 0,-1.104 -0.762,-2.04 -1.701,-2.04 H 9.419 c -1.437,0 -2.602,1.369 -2.602,3.058 V 42.87 c 0,1.689 1.165,3.058 2.602,3.058 h 32.464 c 1.437,0 2.602,-1.369 2.602,-3.058 V 20.217 c 0,-1.104 -0.803,-1.999 -1.743,-1.999 -0.94,0 -1.701,0.895 -1.701,1.999 v 20.111 c 0,0.916 -0.632,1.659 -1.412,1.659 H 11.574 c -0.78,0 -1.412,-0.743 -1.412,-1.659 V 7.354 c 0,-0.916 0.632,-1.659 1.412,-1.659 h 17.081 c 0.94,0 1.702,-0.895 1.702,-2 z"
         id="XMLID_93_"
         style="fill:#fffff5;fill-opacity:1;stroke:none" /><g
         id="XMLID_90_"
         style="fill:#fffff5;fill-opacity:1;stroke:none"><path
           d="M 32.968,9.981 32.922,7.237 v -4.71 c 0.731,-0.152 1.6,-0.228 2.606,-0.228 1.007,0 1.876,0.076 2.607,0.228 v 4.71 l -0.046,2.744 2.698,-0.046 h 4.39 c 0.152,0.976 0.229,1.829 0.229,2.561 0,0.731 -0.077,1.508 -0.229,2.332 h -4.39 l -2.698,-0.046 0.046,2.652 v 4.756 c -0.731,0.153 -1.6,0.229 -2.607,0.229 -1.006,0 -1.875,-0.076 -2.606,-0.229 v -4.756 l 0.046,-2.652 -2.698,0.046 h -4.39 c -0.153,-0.61 -0.229,-1.418 -0.229,-2.424 0,-1.006 0.076,-1.83 0.229,-2.47 h 4.39 l 2.698,0.047 z"
           id="XMLID_91_"
           style="fill:#fffff5;fill-opacity:1;stroke:none" /></g></g></g><g
     id="Layer_1"
     style="fill:#fffff5;fill-opacity:1;stroke:none" /></svg>