<?xml version="1.0" encoding="iso-8859-1"?>
<!-- Generator: Adobe Illustrator 19.0.0, SVG Export Plug-In . SVG Version: 6.00 Build 0)  -->
<svg id="Info" version="1.1" xmlns="http://www.w3.org/2000/svg" xmlns:xlink="http://www.w3.org/1999/xlink" x="0px" y="0px"
	 viewBox="0 0 47.333 47.333" style="enable-background:new 0 0 47.333 47.333;" xml:space="preserve">
<g id="Layer_8">
	<path id="XMLID_143_" d="M44.16,11.787c2.115,3.626,3.173,7.585,3.173,11.878c0,4.295-1.058,8.254-3.173,11.88
		c-2.117,3.626-4.988,6.497-8.614,8.614c-3.626,2.115-7.585,3.173-11.878,3.173c-4.295,0-8.254-1.058-11.88-3.173
		c-3.626-2.117-6.497-4.988-8.614-8.614C1.058,31.92,0,27.961,0,23.666c0-4.293,1.058-8.253,3.173-11.878
		C5.29,8.162,8.162,5.29,11.787,3.173C15.413,1.058,19.373,0,23.668,0c4.293,0,8.253,1.058,11.878,3.173
		C39.172,5.29,42.043,8.162,44.16,11.787z M31.555,38.458v-4.931c0-0.287-0.093-0.523-0.276-0.708
		c-0.185-0.185-0.423-0.278-0.71-0.278H27.61V16.765c0-0.289-0.091-0.525-0.276-0.71c-0.185-0.185-0.421-0.276-0.71-0.276h-9.86
		c-0.289,0-0.525,0.091-0.71,0.276c-0.184,0.185-0.276,0.421-0.276,0.71v4.929c0,0.289,0.093,0.525,0.276,0.71
		c0.185,0.185,0.421,0.276,0.71,0.276h2.958v9.861h-2.958c-0.289,0-0.525,0.093-0.71,0.278c-0.184,0.185-0.276,0.421-0.276,0.708
		v4.931c0,0.287,0.093,0.525,0.276,0.708c0.185,0.185,0.421,0.278,0.71,0.278h13.804c0.287,0,0.525-0.093,0.71-0.278
		C31.462,38.983,31.555,38.745,31.555,38.458z M27.61,10.848V5.917c0-0.287-0.091-0.525-0.276-0.71
		c-0.185-0.184-0.421-0.276-0.71-0.276h-5.915c-0.289,0-0.525,0.093-0.71,0.276c-0.185,0.185-0.276,0.423-0.276,0.71v4.931
		c0,0.287,0.091,0.523,0.276,0.708c0.185,0.185,0.421,0.278,0.71,0.278h5.915c0.289,0,0.525-0.093,0.71-0.278
		S27.61,11.135,27.61,10.848z"/>
</g>
<g id="Layer_1">
</g>
</svg>
