<?xml version="1.0" encoding="UTF-8" standalone="no"?>
<!-- Created with Inkscape (http://www.inkscape.org/) -->

<svg
   xmlns:dc="http://purl.org/dc/elements/1.1/"
   xmlns:cc="http://creativecommons.org/ns#"
   xmlns:rdf="http://www.w3.org/1999/02/22-rdf-syntax-ns#"
   xmlns:svg="http://www.w3.org/2000/svg"
   xmlns="http://www.w3.org/2000/svg"
   version="1.1"
   width="100%"
   height="100%"
   viewBox="0 0 39.645 49.213"
   id="Manage"
   xml:space="preserve"><metadata
     id="metadata11"><rdf:RDF><cc:Work
         rdf:about=""><dc:format>image/svg+xml</dc:format><dc:type
           rdf:resource="http://purl.org/dc/dcmitype/StillImage" /><dc:title></dc:title></cc:Work></rdf:RDF></metadata><defs
     id="defs9" /><g
     id="Layer_4"
     style="fill:#fffff5;fill-opacity:1"><path
       d="m 28.335,3.119 v 2.253 c 0,1.089 0.883,1.971 1.971,1.971 h 3.784 c 0.728,0 1.318,0.59 1.318,1.318 v 35.013 c 0,0.728 -0.59,1.318 -1.318,1.318 H 5.557 c -0.728,0 -1.318,-0.59 -1.318,-1.318 V 8.661 c 0,-0.728 0.59,-1.318 1.318,-1.318 h 3.784 c 1.089,0 1.971,-0.883 1.971,-1.971 V 3.119 H 3.029 C 1.356,3.119 0,4.475 0,6.147 v 40.037 c 0,1.673 1.356,3.029 3.029,3.029 h 33.588 c 1.673,0 3.029,-1.356 3.029,-3.029 V 6.147 c 0,-1.673 -1.356,-3.029 -3.029,-3.029 h -8.282 z"
       id="XMLID_107_"
       style="fill:#fffff5;fill-opacity:1" /><path
       d="M 27.537,9.705 C 25.963,9.302 24.867,7.997 24.867,6.372 V 5.015 C 24.867,2.245 22.622,0 19.852,0 H 19.75 c -2.77,0 -5.015,2.245 -5.015,5.015 v 1.369 c 0,1.617 -1.086,2.919 -2.651,3.327 -2.034,0.53 -3.535,2.493 -3.535,4.693 v 0.063 c 0,0.819 0.664,1.483 1.483,1.483 h 19.576 c 0.819,0 1.483,-0.664 1.483,-1.483 v -0.063 c 0.002,-2.208 -1.51,-4.176 -3.554,-4.699 z M 19.822,6.604 c -0.839,0 -1.519,-0.68 -1.519,-1.519 0,-0.839 0.68,-1.519 1.519,-1.519 0.839,0 1.519,0.68 1.519,1.519 0,0.839 -0.68,1.519 -1.519,1.519 z"
       id="XMLID_104_"
       style="fill:#fffff5;fill-opacity:1" /><path
       d="m 29.202,26.107 c 0.94,-0.94 0.94,-2.465 0,-3.406 -0.941,-0.94 -2.465,-0.94 -3.406,0 l -7.93,7.93 -2.899,-2.899 c -0.94,-0.94 -2.465,-0.94 -3.406,0 -0.94,0.941 -0.94,2.465 0,3.406 l 5.065,5.065 c 0.684,0.684 1.794,0.684 2.478,0 L 29.202,26.107 z"
       id="XMLID_103_"
       style="fill:#fffff5;fill-opacity:1" /></g></svg>