<?xml version="1.0" encoding="UTF-8" standalone="no"?>
<!-- Created with Inkscape (http://www.inkscape.org/) -->

<svg
   xmlns:dc="http://purl.org/dc/elements/1.1/"
   xmlns:cc="http://creativecommons.org/ns#"
   xmlns:rdf="http://www.w3.org/1999/02/22-rdf-syntax-ns#"
   xmlns:svg="http://www.w3.org/2000/svg"
   xmlns="http://www.w3.org/2000/svg"
   version="1.1"
   width="100%"
   height="100%"
   viewBox="0 0 33.555 48.667"
   id="Logout"
   xml:space="preserve"><metadata
     id="metadata10"><rdf:RDF><cc:Work
         rdf:about=""><dc:format>image/svg+xml</dc:format><dc:type
           rdf:resource="http://purl.org/dc/dcmitype/StillImage" /><dc:title></dc:title></cc:Work></rdf:RDF></metadata><defs
     id="defs8" /><g
     id="Layer_7"
     style="fill:#fffff5;fill-opacity:1"><path
       d="m 0,2.066 v 0.042 c 0,1.141 0.925,2.066 2.066,2.066 h 25.957 c 0.795,0 1.439,0.644 1.439,1.439 v 37.419 c 0,0.795 -0.644,1.439 -1.439,1.439 H 2.066 C 0.925,44.472 0,45.397 0,46.538 V 46.6 c 0,1.141 0.925,2.066 2.066,2.066 h 28.407 c 1.702,0 3.082,-1.38 3.082,-3.082 V 3.082 C 33.555,1.38 32.176,0 30.473,0 H 2.066 C 0.925,0 0,0.925 0,2.066 z"
       id="XMLID_162_"
       style="fill:#fffff5;fill-opacity:1" /><path
       d="m 12.487,15.662 v 3.102 c 0,0.763 -0.619,1.382 -1.382,1.382 H 3.572 c -0.817,0 -1.48,0.663 -1.48,1.48 v 4.922 c 0,0.817 0.663,1.48 1.48,1.48 h 7.533 c 0.763,0 1.382,0.619 1.382,1.382 v 3.144 c 0,0.863 1.007,1.335 1.67,0.782 l 9.799,-8.17 c 0.661,-0.551 0.661,-1.566 0,-2.116 l -9.799,-8.17 c -0.663,-0.552 -1.67,-0.081 -1.67,0.782 z"
       id="XMLID_161_"
       style="fill:#fffff5;fill-opacity:1" /></g></svg>