<?xml version="1.0" encoding="utf-8"?>
<!-- Generator: Adobe Illustrator 19.0.0, SVG Export Plug-In . SVG Version: 6.00 Build 0)  -->
<svg version="1.1" id="Layer_1" xmlns="http://www.w3.org/2000/svg" xmlns:xlink="http://www.w3.org/1999/xlink" x="0px" y="0px"
	 viewBox="-178 535.4 282 67.6" style="enable-background:new -178 535.4 282 67.6;" xml:space="preserve">
<style type="text/css">
	.st0{fill:#FFFFFE;}
</style>
<g>
	<path class="st0" d="M-103.4,591.1c-0.5,0-1,0.1-1.5,0.1c-3.1,0-6-0.8-8.7-2.4c4.6-5.1,7.1-11.6,7.1-18.5
		c0-15.2-12.3-27.6-27.5-27.6s-27.5,12.4-27.5,27.6s12.3,27.6,27.5,27.6c4.7,0,9.4-1.2,13.5-3.6c2.2,1.3,4.7,2.1,7.2,2.1
		c3.9,0,7.6-1.7,10.2-4.5c0.1-0.1,0.2-0.4,0.1-0.5C-103,591.1-103.2,591-103.4,591.1z M-126.5,586.4c-2.4,0.9-4.9,1.4-7.4,1.4
		c-11.1,0-20.2-9.1-20.2-20.3s9-20.3,20.2-20.3s20.2,9.1,20.2,20.3c0,5.5-2.2,10.7-6.1,14.5c-1.3-2.5-2-5.2-2-8c0-0.5,0-1,0.1-1.5
		c0-0.2-0.1-0.4-0.3-0.5c-0.2-0.1-0.4-0.1-0.5,0.1c-2.9,2.6-4.5,6.4-4.5,10.3C-127.1,583.8-126.9,585.1-126.5,586.4z"/>
</g>
<g>
	<g>
		<path class="st0" d="M-63.4,597.1h-6.9v-12.2c-0.5,0.3-1.1,0.6-1.6,0.9s-1.1,0.5-1.7,0.8s-1.2,0.4-1.8,0.5
			c-0.6,0.1-1.2,0.2-1.8,0.2c-1.9,0-3.7-0.4-5.4-1.1c-1.7-0.7-3.1-1.7-4.4-3c-1.3-1.3-2.2-2.8-3-4.6c-0.7-1.8-1.1-3.7-1.1-5.8
			c0-2.1,0.4-4.1,1.1-5.9c0.7-1.8,1.7-3.3,3-4.5c1.3-1.3,2.7-2.2,4.4-2.9c1.7-0.7,3.5-1,5.4-1c0.9,0,1.7,0.1,2.6,0.3
			c0.8,0.2,1.7,0.5,2.5,0.9s1.6,0.8,2.3,1.4s1.4,1.1,2.1,1.7l2.7-3.2h1.7V597.1z M-70.4,572.9c0-0.9-0.2-1.9-0.5-2.8
			c-0.4-0.9-0.9-1.7-1.5-2.4c-0.6-0.7-1.3-1.2-2.2-1.6c-0.8-0.4-1.7-0.6-2.7-0.6c-0.9,0-1.8,0.2-2.7,0.5c-0.8,0.3-1.6,0.8-2.2,1.5
			c-0.6,0.6-1.1,1.4-1.5,2.3s-0.5,1.9-0.5,3.1c0,1.2,0.2,2.2,0.5,3.1s0.8,1.7,1.5,2.3c0.6,0.6,1.3,1.1,2.2,1.4
			c0.8,0.3,1.7,0.5,2.7,0.5c0.9,0,1.8-0.2,2.7-0.6c0.8-0.4,1.6-1,2.2-1.6c0.6-0.7,1.1-1.5,1.5-2.4
			C-70.6,574.8-70.4,573.8-70.4,572.9z"/>
		<path class="st0" d="M-24.1,576.9c0,1.4-0.3,2.8-0.8,4c-0.5,1.3-1.3,2.4-2.2,3.3c-0.9,0.9-2,1.7-3.3,2.2c-1.3,0.5-2.6,0.8-4,0.8
			c-1.3,0-2.5-0.2-3.7-0.7c-1.2-0.4-2.2-1.1-3.2-2c-0.9,0.9-2,1.5-3.2,2c-1.2,0.4-2.4,0.7-3.7,0.7c-1.4,0-2.8-0.3-4-0.8
			c-1.2-0.5-2.3-1.3-3.3-2.2s-1.7-2-2.2-3.3c-0.5-1.3-0.8-2.6-0.8-4v-17.3h6.9v17.3c0,0.5,0.1,0.9,0.3,1.3c0.2,0.4,0.4,0.8,0.7,1.1
			c0.3,0.3,0.7,0.6,1.1,0.7c0.4,0.2,0.9,0.3,1.3,0.3c0.5,0,0.9-0.1,1.3-0.3s0.8-0.4,1.1-0.7c0.3-0.3,0.6-0.7,0.7-1.1
			c0.2-0.4,0.3-0.9,0.3-1.3v-17.3h6.9v17.3c0,0.5,0.1,0.9,0.3,1.3c0.2,0.4,0.4,0.8,0.7,1.1c0.3,0.3,0.7,0.6,1.1,0.7s0.9,0.3,1.3,0.3
			s0.9-0.1,1.3-0.3c0.4-0.2,0.8-0.4,1.1-0.7c0.3-0.3,0.6-0.7,0.7-1.1c0.2-0.4,0.3-0.9,0.3-1.3v-17.3h6.9V576.9z"/>
		<path class="st0" d="M-11,552.2c0,0.6-0.1,1.2-0.4,1.8c-0.2,0.6-0.6,1-1,1.5c-0.4,0.4-0.9,0.7-1.5,1c-0.6,0.2-1.2,0.4-1.8,0.4
			s-1.2-0.1-1.8-0.4c-0.6-0.2-1.1-0.6-1.5-1c-0.4-0.4-0.7-0.9-1-1.5c-0.2-0.6-0.4-1.2-0.4-1.8c0-0.6,0.1-1.2,0.4-1.8
			c0.2-0.6,0.6-1.1,1-1.5c0.4-0.4,0.9-0.7,1.5-1c0.6-0.2,1.2-0.4,1.8-0.4s1.2,0.1,1.8,0.4c0.6,0.2,1.1,0.6,1.5,1
			c0.4,0.4,0.8,0.9,1,1.5C-11.1,550.9-11,551.5-11,552.2z M-12.2,586.7h-6.9v-27.2h6.9V586.7z"/>
		<path class="st0" d="M14.2,586.7H-8.4L3,566.5H-8.4v-6.9h22.5L2.8,579.8h11.4V586.7z"/>
		<path class="st0" d="M43.7,586.7h-1.7l-2.7-3.7c-0.7,0.6-1.3,1.1-2.1,1.7c-0.7,0.5-1.5,1-2.3,1.3c-0.8,0.4-1.6,0.7-2.5,0.9
			c-0.8,0.2-1.7,0.3-2.6,0.3c-1.9,0-3.7-0.3-5.4-1c-1.7-0.6-3.1-1.6-4.4-2.8c-1.3-1.2-2.2-2.7-3-4.5s-1.1-3.8-1.1-6.1
			c0-2.1,0.4-4.1,1.1-5.8c0.7-1.8,1.7-3.3,3-4.6c1.3-1.3,2.7-2.3,4.4-3c1.7-0.7,3.5-1.1,5.4-1.1c0.9,0,1.7,0.1,2.6,0.3
			c0.9,0.2,1.7,0.5,2.5,0.9c0.8,0.4,1.6,0.8,2.3,1.4s1.4,1.1,2.1,1.7l2.7-3.2h1.7V586.7z M36.8,572.9c0-0.9-0.2-1.9-0.5-2.8
			c-0.4-0.9-0.9-1.7-1.5-2.4c-0.6-0.7-1.3-1.2-2.2-1.6c-0.8-0.4-1.7-0.6-2.7-0.6c-0.9,0-1.8,0.2-2.7,0.5s-1.6,0.8-2.2,1.4
			c-0.6,0.6-1.1,1.4-1.5,2.3c-0.4,0.9-0.5,2-0.5,3.2c0,1.2,0.2,2.2,0.5,3.2c0.4,0.9,0.8,1.7,1.5,2.3c0.6,0.6,1.3,1.1,2.2,1.4
			s1.7,0.5,2.7,0.5c0.9,0,1.8-0.2,2.7-0.6c0.8-0.4,1.6-1,2.2-1.6c0.6-0.7,1.1-1.5,1.5-2.4C36.6,574.8,36.8,573.8,36.8,572.9z"/>
		<path class="st0" d="M55.9,586.7H49v-27.2h1.7l2.3,3.2c1.1-1,2.4-1.8,3.8-2.3c1.4-0.5,2.9-0.8,4.4-0.8h6.1v6.9h-6.1
			c-0.7,0-1.4,0.1-2,0.4c-0.6,0.3-1.2,0.6-1.7,1.1s-0.8,1-1.1,1.7c-0.3,0.6-0.4,1.3-0.4,2.1V586.7z"/>
		<path class="st0" d="M96,586.7h-1.7l-2.7-3.7c-0.7,0.6-1.3,1.1-2.1,1.7c-0.7,0.5-1.5,1-2.3,1.3c-0.8,0.4-1.6,0.7-2.5,0.9
			s-1.7,0.3-2.6,0.3c-1.9,0-3.7-0.4-5.4-1.1c-1.7-0.7-3.1-1.7-4.4-3s-2.2-2.8-3-4.5c-0.7-1.8-1.1-3.7-1.1-5.7c0-2,0.4-4,1.1-5.7
			c0.7-1.8,1.7-3.3,3-4.6c1.3-1.3,2.7-2.3,4.4-3c1.7-0.7,3.5-1.1,5.4-1.1c0.6,0,1.2,0.1,1.9,0.2s1.3,0.3,1.9,0.5
			c0.6,0.2,1.2,0.5,1.7,0.9s1,0.8,1.4,1.4v-12.7H96V586.7z M89,572.9c0-0.9-0.2-1.9-0.5-2.8c-0.4-0.9-0.9-1.7-1.5-2.4
			c-0.6-0.7-1.3-1.2-2.2-1.6c-0.8-0.4-1.7-0.6-2.7-0.6c-0.9,0-1.8,0.2-2.7,0.5c-0.8,0.3-1.6,0.8-2.2,1.5s-1.1,1.4-1.5,2.3
			c-0.4,0.9-0.5,1.9-0.5,3.1c0,1,0.2,1.9,0.5,2.8c0.4,0.9,0.8,1.7,1.5,2.4s1.3,1.2,2.2,1.6c0.8,0.4,1.7,0.6,2.7,0.6
			c0.9,0,1.8-0.2,2.7-0.6c0.8-0.4,1.6-1,2.2-1.6c0.6-0.7,1.1-1.5,1.5-2.4C88.8,574.8,89,573.8,89,572.9z"/>
	</g>
</g>
<polyline class="st0" points="-167.5,555.4 -168.8,551.2 -173.1,549.9 -168.8,548.5 -167.5,544.3 -166.2,548.5 -161.9,549.9 
	-166.2,551.2 -167.5,555.4 "/>
<polyline class="st0" points="-161.9,542.4 -162.4,540.5 -164.3,540 -162.4,539.4 -161.9,537.5 -161.3,539.4 -159.4,540 
	-161.3,540.5 -161.9,542.4 "/>
</svg>
